#!OML:ASF E:\Steps\Project 1\Capture day 1\Session 2\Subject.ASF
:FULLY-SPECIFIED
:DEGREES
495
root 9.19343 17.2231 -0.430292 -152.368 -0.844095 177.048
lowerback -22.8028 -0.771924 -10.9095
upperback 0.66835 1.90957 -2.61895
thorax 13.3905 0.0674751 3.83465
lowerneck -0.806784 -1.67651 -2.44865
upperneck 18.6931 -4.89475 7.29313
head 5.9986 -2.61055 2.39642
rclavicle 5.96354e-015 2.06736e-014
rhumerus -33.6454 -10.273 -82.9216
rradius 36.4298
rwrist -4.35802
rhand -8.54903 -49.8683
rfingers 7.12502
rthumb 17.3805 -79.1112
lclavicle 5.96354e-015 2.06736e-014
lhumerus -32.3495 5.05246 79.1848
lradius 27.1094
lwrist -3.69184
lhand -18.5968 -13.9718
lfingers 7.12502
lthumb 7.69432 15.8682
rfemur -20.0817 6.04 16.3784
rtibia 19.7299
rfoot -1.17733 -3.49685
rtoes -37.4269
lfemur -59.5768 -9.60769 -20.0022
ltibia 49.4109
lfoot -13.5459 0.232818
ltoes -24.1213
496
root 9.17043 17.2804 -0.491905 -152.136 -0.800272 177.169
lowerback -22.8627 -0.796335 -10.8738
upperback 0.622458 1.86603 -2.59632
thorax 13.3762 0.0501127 3.82718
lowerneck -1.28318 -1.66426 -2.41378
upperneck 19.4886 -5.00592 7.224
head 6.3375 -2.66688 2.35216
rclavicle 1.55052e-014 -4.13472e-014
rhumerus -33.8333 -10.2261 -82.7764
rradius 36.4484
rwrist -4.95873
rhand -8.95531 -50.1124
rfingers 7.12502
rthumb 16.9895 -79.3894
lclavicle 1.55052e-014 -4.13472e-014
lhumerus -32.1576 4.60261 79.3515
lradius 27.3602
lwrist -3.29593
lhand -18.7173 -14.4977
lfingers 7.12502
lthumb 7.57805 15.3465
rfemur -21.2632 5.64271 16.3059
rtibia 21.4081
rfoot -0.534721 -3.02541
rtoes -38.4528
lfemur -59.116 -9.48343 -19.9966
ltibia 48.6291
lfoot -13.4734 0.151239
ltoes -23.615
497
root 9.14685 17.3386 -0.558276 -151.997 -0.737079 177.345
lowerback -22.9581 -0.761226 -10.7824
upperback 0.601056 1.89651 -2.56148
thorax 13.4016 0.0686996 3.82769
lowerneck -1.38496 -1.65092 -2.1346
upperneck 19.5393 -4.92202 6.82007
head 6.35315 -2.62644 2.17954
rclavicle -8.74653e-015 8.18993e-014
rhumerus -34.1637 -10.4626 -82.5253
rradius 36.5631
rwrist -5.25336
rhand -9.43669 -49.6272
rfingers 7.12502
rthumb 16.526 -78.9435
lclavicle -8.74653e-015 8.18993e-014
lhumerus -31.6564 4.01749 79.5527
lradius 27.2688
lwrist -2.82945
lhand -18.7692 -14.5261
lfingers 7.12502
lthumb 7.52789 15.32
rfemur -22.4525 5.24549 16.3213
rtibia 23.3029
rfoot -0.0140594 -2.61796
rtoes -39.3929
lfemur -58.4244 -9.32938 -19.95
ltibia 47.617
lfoot -13.333 -0.0131209
ltoes -22.004
498
root 9.12254 17.3953 -0.625199 -151.984 -0.533571 177.434
lowerback -22.9605 -0.724376 -10.7844
upperback 0.665459 1.9587 -2.57979
thorax 13.4716 0.0935679 3.82817
lowerneck -1.43283 -1.66901 -2.27074
upperneck 19.2107 -4.92236 7.11534
head 6.26588 -2.60578 2.29747
rclavicle -2.3059e-014 2.38542e-014
rhumerus -34.3115 -10.708 -82.377
rradius 36.6787
rwrist -5.47808
rhand -9.87288 -48.9256
rfingers 7.12502
rthumb 16.1061 -78.2763
lclavicle -2.3059e-014 2.38542e-014
lhumerus -31.8494 3.77937 79.6743
lradius 28.0259
lwrist -2.42171
lhand -18.4962 -14.1538
lfingers 7.12502
lthumb 7.79144 15.6827
rfemur -23.5585 4.90989 16.2353
rtibia 25.3664
rfoot 0.349804 -2.13863
rtoes -39.044
lfemur -57.5129 -9.19636 -20.0483
ltibia 46.4921
lfoot -13.1666 0.0691549
ltoes -21.7472
499
root 9.10028 17.4495 -0.682699 -151.777 -0.285847 177.494
lowerback -22.9689 -0.741481 -10.8424
upperback 0.620186 1.94317 -2.59164
thorax 13.4232 0.0839109 3.84192
lowerneck -1.55984 -1.68985 -2.45025
upperneck 19.1286 -4.96284 7.36303
head 6.27279 -2.61464 2.40281
rclavicle 2.38542e-015 -1.74931e-014
rhumerus -34.4678 -10.6793 -82.3143
rradius 36.8116
rwrist -5.84857
rhand -10.2345 -48.7146
rfingers 7.12502
rthumb 15.7578 -78.0931
lclavicle 2.38542e-015 -1.74931e-014
lhumerus -31.8364 3.80459 79.6747
lradius 28.4264
lwrist -2.36514
lhand -18.3351 -14.4394
lfingers 7.12502
lthumb 7.94695 15.3913
rfemur -25.0591 4.66675 16.1157
rtibia 27.7353
rfoot 0.702935 -1.73822
rtoes -38.1068
lfemur -56.9504 -9.07412 -20.1183
ltibia 45.5945
lfoot -13.0703 0.255558
ltoes -22.2674
500
root 9.08013 17.5031 -0.735921 -151.512 -0.0319901 177.551
lowerback -22.9873 -0.777308 -10.9489
upperback 0.490904 1.89905 -2.57045
thorax 13.2815 0.0615734 3.91184
lowerneck -1.43119 -1.63283 -2.12048
upperneck 18.9572 -4.79497 6.93607
head 6.17203 -2.5388 2.22361
rclavicle -1.66979e-014 2.78299e-014
rhumerus -34.6634 -10.6355 -82.1603
rradius 36.7647
rwrist -6.15422
rhand -10.1815 -48.6398
rfingers 7.12502
rthumb 15.8089 -78.0143
lclavicle -1.66979e-014 2.78299e-014
lhumerus -31.7784 3.80442 79.6746
lradius 28.6032
lwrist -2.42115
lhand -18.2505 -14.7918
lfingers 7.12502
lthumb 8.02859 15.0357
rfemur -26.8749 4.40355 16.0098
rtibia 30.5092
rfoot 1.13582 -1.7279
rtoes -37.0996
lfemur -56.47 -8.87868 -20.1867
ltibia 44.6961
lfoot -12.976 0.288815
ltoes -21.9416
501
root 9.05656 17.5578 -0.791555 -151.554 0.109524 177.587
lowerback -22.891 -0.824113 -10.974
upperback 0.537311 1.83685 -2.54457
thorax 13.29 0.0311613 3.93374
lowerneck -1.97201 -1.68447 -2.36509
upperneck 19.6104 -4.96071 7.00793
head 6.48896 -2.62341 2.26754
rclavicle 0 2.54444e-014
rhumerus -34.707 -10.5797 -81.9934
rradius 36.7894
rwrist -6.43729
rhand -9.54111 -48.8018
rfingers 7.12502
rthumb 16.4255 -78.1264
lclavicle 0 2.54444e-014
lhumerus -31.6795 3.48945 79.8025
lradius 29.0218
lwrist -2.0287
lhand -18.1805 -14.5069
lfingers 7.12502
lthumb 8.09614 15.318
rfemur -28.4787 4.02237 15.977
rtibia 33.6223
rfoot 1.77916 -2.19753
rtoes -34.66
lfemur -55.6242 -8.77262 -20.3202
ltibia 43.7153
lfoot -12.8985 0.218345
ltoes -21.0177
502
root 9.03149 17.6141 -0.848896 -151.681 0.182696 177.613
lowerback -22.7426 -0.866117 -10.9485
upperback 0.637134 1.77253 -2.54751
thorax 13.3352 0.00262078 3.89261
lowerneck -1.51721 -1.64078 -2.34251
upperneck 19.0381 -4.8259 7.0433
head 6.22035 -2.56139 2.29178
rclavicle 3.18055e-015 1.13705e-013
rhumerus -34.7913 -10.687 -81.8687
rradius 37.0133
rwrist -6.68987
rhand -9.10743 -48.9989
rfingers 7.12502
rthumb 16.843 -78.2885
lclavicle 3.18055e-015 1.13705e-013
lhumerus -31.5079 3.04977 79.9312
lradius 29.3743
lwrist -1.6369
lhand -18.5355 -14.2734
lfingers 7.12502
lthumb 7.7535 15.5645
rfemur -29.3406 3.49005 16.0024
rtibia 35.7007
rfoot 1.85141 -3.01621
rtoes -35.385
lfemur -54.6727 -8.7983 -20.4343
ltibia 42.6925
lfoot -12.7857 0.217452
ltoes -20.1675
503
root 9.0108 17.6644 -0.907388 -151.671 0.364796 177.64
lowerback -22.7145 -0.877142 -11.0102
upperback 0.665736 1.77485 -2.56312
thorax 13.3521 -0.00187724 3.90941
lowerneck -1.31918 -1.60787 -2.32478
upperneck 18.7321 -4.76011 7.15867
head 6.08759 -2.52424 2.33311
rclavicle -2.14687e-014 -2.78299e-014
rhumerus -34.9581 -10.9396 -81.7252
rradius 37.1685
rwrist -6.86202
rhand -9.14983 -48.9176
rfingers 7.12502
rthumb 16.8022 -78.2106
lclavicle -2.14687e-014 -2.78299e-014
lhumerus -31.1589 2.7719 79.9464
lradius 29.3093
lwrist -1.51464
lhand -18.7719 -13.9991
lfingers 7.12502
lthumb 7.52528 15.847
rfemur -30.8283 3.02203 16.0397
rtibia 38.619
rfoot 1.50521 -3.93318
rtoes -35.4989
lfemur -53.8225 -8.73456 -20.5549
ltibia 41.6042
lfoot -12.6052 0.374741
ltoes -20.2683
504
root 8.99255 17.7086 -0.961873 -151.698 0.615007 177.607
lowerback -22.7016 -1.37426 -10.9698
upperback 0.719239 1.9072 -2.56571
thorax 13.4555 0.38535 4.00632
lowerneck -1.66002 -1.61959 -2.43697
upperneck 18.8387 -4.81295 7.38843
head 6.19031 -2.53078 2.41706
rclavicle 1.19271e-014 -7.15625e-015
rhumerus -35.0184 -10.9815 -81.5899
rradius 37.2286
rwrist -7.05816
rhand -9.30906 -48.5934
rfingers 7.12502
rthumb 16.6489 -77.8994
lclavicle 1.19271e-014 -7.15625e-015
lhumerus -30.7409 2.63118 79.9498
lradius 29.2581
lwrist -1.33228
lhand -18.6298 -13.9689
lfingers 7.12502
lthumb 7.66252 15.8723
rfemur -32.4216 2.63787 16.0012
rtibia 41.7556
rfoot 0.755209 -4.86159
rtoes -35.9153
lfemur -52.9898 -8.62441 -20.7691
ltibia 40.6015
lfoot -12.4804 0.558061
ltoes -20.9488
505
root 8.97229 17.753 -1.01131 -151.785 0.822015 177.585
lowerback -22.5403 -1.43727 -11.0428
upperback 0.770722 1.81427 -2.54147
thorax 13.4356 0.333506 4.04072
lowerneck -1.36502 -1.47053 -2.50241
upperneck 18.1982 -4.49331 7.42884
head 5.92099 -2.3746 2.46566
rclavicle 3.97569e-016 8.90555e-014
rhumerus -35.1278 -10.7985 -81.5224
rradius 37.3868
rwrist -7.21634
rhand -9.28332 -48.4115
rfingers 7.12502
rthumb 16.6737 -77.7154
lclavicle 3.97569e-016 8.90555e-014
lhumerus -30.5905 2.63144 79.9051
lradius 29.4256
lwrist -1.26619
lhand -18.6359 -14.4974
lfingers 7.12502
lthumb 7.65664 15.344
rfemur -33.894 2.22711 15.9823
rtibia 44.8048
rfoot -0.155041 -5.78768
rtoes -36.8212
lfemur -52.1552 -8.60126 -20.9261
ltibia 39.6492
lfoot -12.3696 0.680602
ltoes -21.3776
506
root 8.94968 17.7964 -1.05764 -151.829 0.96852 177.587
lowerback -22.297 -1.5203 -11.0015
upperback 0.719605 1.65378 -2.53968
thorax 13.2601 0.275176 3.96353
lowerneck -1.71188 -1.45728 -2.64635
upperneck 18.7355 -4.55778 7.4405
head 6.15682 -2.4147 2.48439
rclavicle 1.19271e-015 -1.74931e-014
rhumerus -35.309 -10.724 -81.4689
rradius 37.4937
rwrist -7.14808
rhand -9.04173 -48.4824
rfingers 7.12502
rthumb 16.9063 -77.7665
lclavicle 1.19271e-015 -1.74931e-014
lhumerus -30.7378 2.39551 79.8477
lradius 29.7961
lwrist -1.02835
lhand -18.5343 -14.0676
lfingers 7.12502
lthumb 7.75468 15.7702
rfemur -35.3847 1.7923 16.0036
rtibia 47.7417
rfoot -0.964892 -6.75148
rtoes -36.2318
lfemur -51.3889 -8.62217 -21.0341
ltibia 38.6973
lfoot -12.2235 0.788876
ltoes -21.2451
507
root 8.92715 17.8379 -1.10572 -151.886 1.16838 177.526
lowerback -22.18 -1.54578 -11.0149
upperback 0.734989 1.61721 -2.59177
thorax 13.2188 0.262788 3.8979
lowerneck -1.75883 -1.3879 -2.51724
upperneck 18.7533 -4.44865 7.31383
head 6.16005 -2.36042 2.42817
rclavicle -4.37326e-015 4.13472e-014
rhumerus -35.3853 -10.9342 -81.3584
rradius 37.5301
rwrist -7.19361
rhand -8.88567 -48.7584
rfingers 7.12502
rthumb 17.0565 -78.0296
lclavicle -4.37326e-015 4.13472e-014
lhumerus -30.7523 1.98127 79.8306
lradius 30.1821
lwrist -0.654153
lhand -18.3586 -12.8348
lfingers 7.12502
lthumb 7.92424 16.9967
rfemur -36.8861 1.4127 15.9134
rtibia 50.5889
rfoot -1.86892 -7.51125
rtoes -34.3392
lfemur -50.5961 -8.5619 -21.2899
ltibia 37.7637
lfoot -12.075 0.961702
ltoes -21.2486
508
root 8.91034 17.8817 -1.15863 -152.104 1.31537 177.518
lowerback -22.0829 -1.56815 -11.0481
upperback 0.874367 1.5799 -2.57826
thorax 13.3323 0.226858 3.91615
lowerneck -1.27865 -1.30437 -2.57071
upperneck 18.1527 -4.25879 7.39319
head 5.87894 -2.27458 2.48033
rclavicle 9.14409e-015 -2.46493e-014
rhumerus -35.416 -11.1002 -81.2168
rradius 37.684
rwrist -7.46835
rhand -8.86511 -49.2132
rfingers 7.12502
rthumb 17.0763 -78.4828
lclavicle 9.14409e-015 -2.46493e-014
lhumerus -30.5131 1.85132 79.7848
lradius 30.3315
lwrist -0.555731
lhand -18.4735 -12.2911
lfingers 7.12502
lthumb 7.81331 17.5445
rfemur -38.313 1.17072 15.9153
rtibia 53.5462
rfoot -2.7865 -8.01034
rtoes -33.4821
lfemur -49.5938 -8.39448 -21.5181
ltibia 36.8122
lfoot -11.9377 1.10588
ltoes -23.0925
